<svg width="9" height="12" viewBox="0 0 9 12" fill="none" xmlns="http://www.w3.org/2000/svg">
<path d="M1.952 9.568V3.888C1.952 3.20533 2.09067 2.61867 2.368 2.128C2.656 1.63733 3.05067 1.264 3.552 1.008C4.064 0.741333 4.65067 0.608 5.312 0.608C5.952 0.608 6.51733 0.736 7.008 0.992C7.49867 1.248 7.88267 1.62133 8.16 2.112C8.448 2.592 8.592 3.18933 8.592 3.904L7.056 3.744C7.056 3.2 6.89067 2.768 6.56 2.448C6.22933 2.128 5.808 1.968 5.296 1.968C4.77333 1.968 4.34133 2.144 4 2.496C3.66933 2.848 3.504 3.312 3.504 3.888V9.36L1.952 9.568ZM1.2 11.6L1.136 10.56C1.36 10.56 1.552 10.464 1.712 10.272C1.872 10.08 1.952 9.84533 1.952 9.568L3.504 9.36C3.504 9.808 3.40267 10.2027 3.2 10.544C2.99733 10.8747 2.72 11.136 2.368 11.328C2.016 11.5093 1.62667 11.6 1.2 11.6ZM0.752 12V10.56H8.592V12H0.752ZM0.752 7.424V6.112H6.736V7.424H0.752Z" fill="#1B1B1C"/>
</svg>
