<svg width="30" height="30" viewBox="0 0 30 30" fill="none" xmlns="http://www.w3.org/2000/svg">
<path fill-rule="evenodd" clip-rule="evenodd" d="M26.4855 12.5047C26.4077 12.4999 26.323 12.5 26.2351 12.5L26.2132 12.5H22.7687C19.9294 12.5 17.5 14.6701 17.5 17.5C17.5 20.3299 19.9294 22.5 22.7687 22.5H26.2132L26.2351 22.5C26.323 22.5 26.4077 22.5001 26.4855 22.4953C27.6388 22.4246 28.6587 21.5483 28.7445 20.3243C28.7501 20.244 28.75 20.1575 28.75 20.0773L28.75 20.0556V14.9444L28.75 14.9227C28.75 14.8425 28.7501 14.756 28.7445 14.6757C28.6587 13.4517 27.6388 12.5754 26.4855 12.5047ZM22.4632 18.8333C23.1942 18.8333 23.7868 18.2364 23.7868 17.5C23.7868 16.7636 23.1942 16.1667 22.4632 16.1667C21.7323 16.1667 21.1397 16.7636 21.1397 17.5C21.1397 18.2364 21.7323 18.8333 22.4632 18.8333Z" fill="white"/>
<path d="M26.4243 12.5019C26.4243 11.0261 26.3706 9.44309 25.4272 8.30822C25.3361 8.19867 25.2392 8.0923 25.1359 7.98905C24.2005 7.0536 23.0143 6.63845 21.5488 6.44142C20.1248 6.24997 18.3052 6.24998 16.008 6.25H13.367C11.0698 6.24998 9.25024 6.24997 7.82622 6.44142C6.3607 6.63846 5.17451 7.0536 4.23905 7.98906C3.3036 8.92451 2.88845 10.1107 2.69142 11.5762C2.49997 13.0002 2.49998 14.8198 2.5 17.117V17.258C2.49998 19.5552 2.49997 21.3748 2.69142 22.7988C2.88846 24.2643 3.3036 25.4505 4.23906 26.3859C5.17451 27.3214 6.3607 27.7365 7.82622 27.9336C9.25023 28.125 11.0698 28.125 13.3669 28.125H16.008C18.3052 28.125 20.1248 28.125 21.5488 27.9336C23.0143 27.7365 24.2005 27.3214 25.136 26.3859C25.3916 26.1303 25.6087 25.8555 25.7933 25.5607C26.3563 24.6614 26.4243 23.5592 26.4243 22.4981C26.364 22.5 26.3005 22.5 26.2352 22.5L22.7687 22.5C19.9294 22.5 17.5 20.3299 17.5 17.5C17.5 14.6701 19.9294 12.5 22.7687 12.5L26.2351 12.5C26.3004 12.5 26.364 12.5 26.4243 12.5019Z" fill="#D2BCFF"/>
<path d="M6.1145 12.0181C6.1145 11.5152 6.51906 11.1074 7.01812 11.1074H11.8374C12.3364 11.1074 12.741 11.5152 12.741 12.0181C12.741 12.5211 12.3364 12.9288 11.8374 12.9288H7.01812C6.51906 12.9288 6.1145 12.5211 6.1145 12.0181Z" fill="white"/>
<path d="M12.6269 3.21514L10.0001 4.99066L7.8335 6.44046C9.25644 6.24997 11.0737 6.24998 13.3671 6.25H16.0081C18.3053 6.24998 20.1249 6.24997 21.5489 6.44142C21.8353 6.47993 22.1111 6.52678 22.3764 6.58421L20.0001 5L17.3595 3.21514C15.9488 2.26162 14.0376 2.26162 12.6269 3.21514Z" fill="white"/>
</svg>
