<svg width="40" height="40" viewBox="0 0 40 40" fill="none" xmlns="http://www.w3.org/2000/svg">
<path d="M15.042 31.6668C14.4864 31.6668 13.9659 31.5418 13.4803 31.2918C12.9937 31.0418 12.5975 30.6946 12.292 30.2502L6.41699 21.9168C6.00033 21.3335 5.79199 20.6946 5.79199 20.0002C5.79199 19.3057 6.00033 18.6668 6.41699 18.0835L12.292 9.75016C12.5975 9.30572 12.9937 8.9585 13.4803 8.7085C13.9659 8.4585 14.4864 8.3335 15.042 8.3335H31.7087C32.6253 8.3335 33.4103 8.66016 34.0637 9.3135C34.7159 9.96572 35.042 10.7502 35.042 11.6668V28.3335C35.042 29.2502 34.7159 30.0352 34.0637 30.6885C33.4103 31.3407 32.6253 31.6668 31.7087 31.6668H15.042ZM17.8337 25.5002C18.1392 25.8057 18.5281 25.9585 19.0003 25.9585C19.4725 25.9585 19.8614 25.8057 20.167 25.5002L23.3337 22.3335L26.5003 25.5002C26.8059 25.8057 27.1948 25.9585 27.667 25.9585C28.1392 25.9585 28.5281 25.8057 28.8337 25.5002C29.1392 25.1946 29.292 24.8057 29.292 24.3335C29.292 23.8613 29.1392 23.4724 28.8337 23.1668L25.667 20.0002L28.8337 16.8335C29.1392 16.5279 29.292 16.1391 29.292 15.6668C29.292 15.1946 29.1392 14.8057 28.8337 14.5002C28.5281 14.1946 28.1392 14.0418 27.667 14.0418C27.1948 14.0418 26.8059 14.1946 26.5003 14.5002L23.3337 17.6668L20.167 14.5002C19.8614 14.1946 19.4725 14.0418 19.0003 14.0418C18.5281 14.0418 18.1392 14.1946 17.8337 14.5002C17.5281 14.8057 17.3753 15.1946 17.3753 15.6668C17.3753 16.1391 17.5281 16.5279 17.8337 16.8335L21.0003 20.0002L17.8337 23.1668C17.5281 23.4724 17.3753 23.8613 17.3753 24.3335C17.3753 24.8057 17.5281 25.1946 17.8337 25.5002Z" fill="#24005A"/>
</svg>
