<svg width="11" height="13" viewBox="0 0 11 13" fill="none" xmlns="http://www.w3.org/2000/svg">
<path d="M6.176 12.192C5.26933 12.192 4.464 11.9467 3.76 11.456C3.056 10.9547 2.50667 10.272 2.112 9.408C1.71733 8.53333 1.52 7.53067 1.52 6.4C1.52 5.26933 1.71733 4.272 2.112 3.408C2.50667 2.53333 3.05067 1.85067 3.744 1.36C4.448 0.858666 5.248 0.608 6.144 0.608C6.73067 0.608 7.28533 0.730666 7.808 0.976C8.34133 1.22133 8.81067 1.56267 9.216 2C9.62133 2.43733 9.936 2.944 10.16 3.52L8.8 4.16C8.64 3.73333 8.42133 3.36533 8.144 3.056C7.86667 2.736 7.55733 2.49067 7.216 2.32C6.87467 2.13867 6.51733 2.048 6.144 2.048C5.55733 2.048 5.03467 2.23467 4.576 2.608C4.128 2.98133 3.77067 3.49333 3.504 4.144C3.248 4.79467 3.12 5.54667 3.12 6.4C3.12 7.25333 3.248 8.01067 3.504 8.672C3.77067 9.32267 4.13333 9.83467 4.592 10.208C5.05067 10.5707 5.584 10.752 6.192 10.752C6.576 10.752 6.93867 10.656 7.28 10.464C7.62133 10.272 7.92533 10.0107 8.192 9.68C8.45867 9.33867 8.672 8.94933 8.832 8.512L10.208 9.136C9.984 9.73333 9.664 10.2667 9.248 10.736C8.84267 11.1947 8.37333 11.552 7.84 11.808C7.31733 12.064 6.76267 12.192 6.176 12.192ZM0.272 7.888V6.928H7.344V7.888H0.272ZM0.272 5.872V4.912H7.344V5.872H0.272Z" fill="#1B1B1C"/>
</svg>
