<svg width="9" height="15" viewBox="0 0 9 15" fill="none" xmlns="http://www.w3.org/2000/svg">
<path d="M4.624 12.632C3.90933 12.632 3.28 12.5253 2.736 12.312C2.20267 12.0987 1.77067 11.816 1.44 11.464C1.10933 11.112 0.885333 10.7387 0.768 10.344L2.16 9.896C2.30933 10.2693 2.58133 10.6 2.976 10.888C3.37067 11.1653 3.86133 11.304 4.448 11.304C5.13067 11.3147 5.66933 11.1813 6.064 10.904C6.46933 10.616 6.672 10.248 6.672 9.8C6.672 9.384 6.496 9.04267 6.144 8.776C5.792 8.49867 5.33333 8.29067 4.768 8.152L3.616 7.864C3.14667 7.736 2.72 7.55467 2.336 7.32C1.96267 7.07467 1.66933 6.77067 1.456 6.408C1.24267 6.04533 1.136 5.61333 1.136 5.112C1.136 4.19467 1.43467 3.47467 2.032 2.952C2.64 2.42933 3.50933 2.168 4.64 2.168C5.29067 2.168 5.856 2.27467 6.336 2.488C6.816 2.69067 7.21067 2.96267 7.52 3.304C7.82933 3.64533 8.048 4.01333 8.176 4.408L6.768 4.888C6.61867 4.48267 6.34667 4.152 5.952 3.896C5.55733 3.62933 5.08267 3.496 4.528 3.496C3.94133 3.496 3.47733 3.63467 3.136 3.912C2.80533 4.18933 2.64 4.56267 2.64 5.032C2.64 5.45867 2.77333 5.784 3.04 6.008C3.30667 6.232 3.65333 6.39733 4.08 6.504L5.264 6.792C6.20267 7.016 6.928 7.4 7.44 7.944C7.952 8.488 8.208 9.08 8.208 9.72C8.208 10.2747 8.06933 10.7707 7.792 11.208C7.51467 11.6453 7.10933 11.992 6.576 12.248C6.05333 12.504 5.40267 12.632 4.624 12.632ZM3.984 14.648V0.52H5.312V14.648H3.984Z" fill="#1B1B1C"/>
</svg>
