<svg width="32" height="13" viewBox="0 0 32 13" fill="none" xmlns="http://www.w3.org/2000/svg">
<path d="M6.192 12.192C5.12533 12.192 4.176 11.9467 3.344 11.456C2.512 10.9547 1.86133 10.272 1.392 9.408C0.922667 8.53333 0.688 7.53067 0.688 6.4C0.688 5.26933 0.922667 4.272 1.392 3.408C1.86133 2.53333 2.50667 1.85067 3.328 1.36C4.14933 0.858666 5.09333 0.608 6.16 0.608C6.85333 0.608 7.51467 0.736 8.144 0.992C8.77333 1.23733 9.33333 1.584 9.824 2.032C10.3253 2.46933 10.7093 2.98133 10.976 3.568L9.568 4.208C9.36533 3.77067 9.088 3.392 8.736 3.072C8.384 2.752 7.984 2.50133 7.536 2.32C7.09867 2.13867 6.64 2.048 6.16 2.048C5.41333 2.048 4.74667 2.23467 4.16 2.608C3.57333 2.98133 3.11467 3.49333 2.784 4.144C2.45333 4.79467 2.288 5.54667 2.288 6.4C2.288 7.25333 2.45333 8.01067 2.784 8.672C3.12533 9.33333 3.58933 9.85067 4.176 10.224C4.77333 10.5867 5.45067 10.768 6.208 10.768C6.69867 10.768 7.16267 10.672 7.6 10.48C8.03733 10.2773 8.42667 10.0053 8.768 9.664C9.12 9.312 9.40267 8.912 9.616 8.464L11.024 9.088C10.7573 9.696 10.3787 10.2347 9.888 10.704C9.39733 11.1733 8.832 11.5413 8.192 11.808C7.56267 12.064 6.896 12.192 6.192 12.192ZM20.5709 12V0.799999H22.1389V12H20.5709ZM12.9709 12V0.799999H14.5389V12H12.9709ZM14.2829 6.96V5.52H21.0669V6.96H14.2829ZM24.9865 12V0.799999H31.7705V2.24H26.5545V5.76H31.0985V7.2H26.5545V12H24.9865Z" fill="#1B1B1C"/>
</svg>
